<?xml version="1.0" standalone="no"?>
<!DOCTYPE svg PUBLIC "-//W3C//DTD SVG 20010904//EN"
 "http://www.w3.org/TR/2001/REC-SVG-20010904/DTD/svg10.dtd">
<svg version="1.0" xmlns="http://www.w3.org/2000/svg"
 width="256.000000pt" height="256.000000pt" viewBox="0 0 256.000000 256.000000"
 preserveAspectRatio="xMidYMid meet">
<metadata>
Created by potrace 1.14, written by Peter Selinger 2001-2017
</metadata>
<g transform="translate(0.000000,256.000000) scale(0.100000,-0.100000)"
fill="#000000" stroke="none">
<path d="M395 2546 c-90 -23 -191 -78 -239 -130 -81 -90 -120 -161 -143 -255
-10 -45 -12 -230 -10 -906 2 -850 2 -850 24 -908 65 -172 200 -293 373 -334
73 -17 1672 -19 1753 -2 192 41 354 202 396 394 7 34 10 322 8 900 -2 850 -2
850 -24 908 -12 33 -37 81 -54 109 -35 54 -104 128 -119 128 -6 0 -10 4 -10 9
0 14 -139 78 -195 90 -76 16 -1694 13 -1760 -3z"/>
</g>
</svg>
